<svg width="1024" height="1024" viewBox="0 0 1024 1024" fill="none" xmlns="http://www.w3.org/2000/svg">
<rect x="10.5" y="10.5" width="1003" height="1003" rx="245.5" fill="#232323"/>
<rect x="10.5" y="10.5" width="1003" height="1003" rx="245.5" stroke="#27272A" stroke-width="21"/>
<path d="M420.048 429.328C418.391 413.821 411.407 401.748 399.096 393.107C386.904 384.465 371.042 380.145 351.511 380.145C337.78 380.145 326.002 382.216 316.177 386.359C306.352 390.502 298.836 396.125 293.627 403.227C288.419 410.33 285.756 418.438 285.637 427.553C285.637 435.128 287.354 441.698 290.786 447.261C294.338 452.825 299.132 457.56 305.169 461.466C311.205 465.254 317.893 468.45 325.232 471.054C332.571 473.658 339.97 475.848 347.427 477.624L381.518 486.146C395.249 489.342 408.447 493.663 421.113 499.108C433.897 504.553 445.32 511.419 455.382 519.705C465.561 527.991 473.611 537.993 479.529 549.712C485.448 561.43 488.407 575.161 488.407 590.905C488.407 612.212 482.962 630.973 472.072 647.19C461.182 663.289 445.438 675.895 424.842 685.01C404.364 694.006 379.565 698.504 350.445 698.504C322.155 698.504 297.593 694.125 276.759 685.365C256.044 676.606 239.828 663.821 228.109 647.013C216.508 630.204 210.235 609.726 209.288 585.578H274.096C275.043 598.244 278.949 608.779 285.815 617.183C292.68 625.588 301.617 631.861 312.626 636.004C323.753 640.147 336.182 642.219 349.913 642.219C364.236 642.219 376.783 640.088 387.555 635.827C398.445 631.447 406.968 625.41 413.123 617.716C419.278 609.903 422.415 600.789 422.534 590.372C422.415 580.902 419.633 573.09 414.188 566.935C408.743 560.661 401.108 555.453 391.284 551.31C381.577 547.048 370.213 543.26 357.193 539.946L315.822 529.293C285.874 521.598 262.2 509.939 244.799 494.314C227.517 478.571 218.876 457.678 218.876 431.636C218.876 410.211 224.676 391.449 236.276 375.351C247.995 359.252 263.916 346.764 284.039 337.886C304.162 328.89 326.949 324.392 352.399 324.392C378.204 324.392 400.812 328.89 420.225 337.886C439.757 346.764 455.086 359.134 466.213 374.996C477.339 390.739 483.08 408.85 483.436 429.328H420.048ZM540.387 693V651.984L726.822 384.584H539.322V329.364H808.498V370.379L622.241 637.78H809.563V693H540.387Z" fill="white"/>
</svg>
